<?xml version="1.0" encoding="utf-8"?>
<!-- Generator: Adobe Illustrator 26.3.1, SVG Export Plug-In . SVG Version: 6.00 Build 0)  -->
<svg version="1.1" id="Layer_1" xmlns="http://www.w3.org/2000/svg" xmlns:xlink="http://www.w3.org/1999/xlink" x="0px" y="0px"
	 viewBox="0 0 315.6 315.6" style="enable-background:new 0 0 315.6 315.6;" xml:space="preserve">
<path d="M246.2,241.4c-12.3,0-24.1-4.8-32.8-13.5L166,180.5c-3.5-3.3-9-3.3-12.4,0L106.1,228c-8.7,8.7-20.5,13.6-32.8,13.6H64l60,60
	c18.7,18.7,49.1,18.7,67.8,0l60.1-60.1L246.2,241.4z M73.3,74c12.3,0,24.1,4.9,32.8,13.6l47.5,47.5c3.4,3.4,9,3.4,12.4,0l47.3-47.3
	c8.7-8.7,20.5-13.6,32.8-13.6h5.7L191.7,14C173-4.7,142.7-4.7,123.9,14c0,0,0,0,0,0L64,74H73.3z M301.6,123.9l-36.3-36.3
	c-0.8,0.3-1.7,0.5-2.6,0.5h-16.5c-8.6,0-16.8,3.4-22.9,9.5l-47.3,47.3c-8.9,8.9-23.3,8.9-32.1,0L96.2,97.4
	c-6.1-6.1-14.3-9.5-22.9-9.5H53c-0.8,0-1.7-0.2-2.4-0.5L14,123.9c-18.7,18.7-18.7,49.1,0,67.8l36.5,36.5c0.8-0.3,1.6-0.5,2.4-0.5
	h20.4c8.6,0,16.8-3.4,22.9-9.5l47.5-47.5c8.6-8.6,23.6-8.6,32.1,0l47.3,47.3c6.1,6.1,14.3,9.5,22.9,9.5h16.5c0.9,0,1.8,0.2,2.6,0.5
	l36.3-36.3C320.3,173,320.3,142.6,301.6,123.9C301.6,123.9,301.6,123.9,301.6,123.9"/>
</svg>
